<mxfile host="app.diagrams.net" agent="Mozilla/5.0 (Windows NT 10.0; Win64; x64) AppleWebKit/537.36 (KHTML, like Gecko) Chrome/135.0.0.0 Safari/537.36 Edg/135.0.0.0" version="26.2.9">
  <diagram id="C5RBs43oDa-KdzZeNtuy" name="Page-1">
    <mxGraphModel dx="1578" dy="873" grid="1" gridSize="10" guides="1" tooltips="1" connect="1" arrows="1" fold="1" page="1" pageScale="1" pageWidth="827" pageHeight="1169" math="0" shadow="0">
      <root>
        <mxCell id="WIyWlLk6GJQsqaUBKTNV-0" />
        <mxCell id="WIyWlLk6GJQsqaUBKTNV-1" parent="WIyWlLk6GJQsqaUBKTNV-0" />
        <mxCell id="_nmG_EsVDidJPEz30VU9-44" style="edgeStyle=orthogonalEdgeStyle;rounded=0;orthogonalLoop=1;jettySize=auto;html=1;exitX=0.5;exitY=1;exitDx=0;exitDy=0;entryX=0.5;entryY=0;entryDx=0;entryDy=0;" edge="1" parent="WIyWlLk6GJQsqaUBKTNV-1" source="WIyWlLk6GJQsqaUBKTNV-3" target="_nmG_EsVDidJPEz30VU9-4">
          <mxGeometry relative="1" as="geometry" />
        </mxCell>
        <mxCell id="WIyWlLk6GJQsqaUBKTNV-3" value="BMAC send student referral to DOR" style="rounded=1;whiteSpace=wrap;html=1;fontSize=12;glass=0;strokeWidth=1;shadow=0;" parent="WIyWlLk6GJQsqaUBKTNV-1" vertex="1">
          <mxGeometry x="380" y="100" width="120" height="40" as="geometry" />
        </mxCell>
        <mxCell id="_nmG_EsVDidJPEz30VU9-3" style="edgeStyle=orthogonalEdgeStyle;rounded=0;orthogonalLoop=1;jettySize=auto;html=1;exitX=1;exitY=0.5;exitDx=0;exitDy=0;exitPerimeter=0;entryX=0;entryY=0.5;entryDx=0;entryDy=0;" edge="1" parent="WIyWlLk6GJQsqaUBKTNV-1" source="_nmG_EsVDidJPEz30VU9-0" target="_nmG_EsVDidJPEz30VU9-1">
          <mxGeometry relative="1" as="geometry" />
        </mxCell>
        <mxCell id="_nmG_EsVDidJPEz30VU9-0" value="" style="strokeWidth=2;html=1;shape=mxgraph.flowchart.start_2;whiteSpace=wrap;fillColor=#d5e8d4;strokeColor=#82b366;" vertex="1" parent="WIyWlLk6GJQsqaUBKTNV-1">
          <mxGeometry x="40" y="8" width="30" height="30" as="geometry" />
        </mxCell>
        <mxCell id="_nmG_EsVDidJPEz30VU9-1" value="Student seek out to BMAC" style="rounded=1;whiteSpace=wrap;html=1;" vertex="1" parent="WIyWlLk6GJQsqaUBKTNV-1">
          <mxGeometry x="160" y="5" width="120" height="35" as="geometry" />
        </mxCell>
        <mxCell id="_nmG_EsVDidJPEz30VU9-7" value="" style="edgeStyle=orthogonalEdgeStyle;rounded=0;orthogonalLoop=1;jettySize=auto;html=1;" edge="1" parent="WIyWlLk6GJQsqaUBKTNV-1" source="_nmG_EsVDidJPEz30VU9-4" target="_nmG_EsVDidJPEz30VU9-6">
          <mxGeometry relative="1" as="geometry" />
        </mxCell>
        <mxCell id="_nmG_EsVDidJPEz30VU9-4" value="DOR do intakes for students (create IPE, gather documents DR260, DR222, ...)" style="rounded=1;whiteSpace=wrap;html=1;fontSize=12;glass=0;strokeWidth=1;shadow=0;" vertex="1" parent="WIyWlLk6GJQsqaUBKTNV-1">
          <mxGeometry x="370" y="180" width="140" height="80" as="geometry" />
        </mxCell>
        <mxCell id="_nmG_EsVDidJPEz30VU9-9" value="" style="edgeStyle=orthogonalEdgeStyle;rounded=0;orthogonalLoop=1;jettySize=auto;html=1;" edge="1" parent="WIyWlLk6GJQsqaUBKTNV-1" source="_nmG_EsVDidJPEz30VU9-6" target="_nmG_EsVDidJPEz30VU9-8">
          <mxGeometry relative="1" as="geometry" />
        </mxCell>
        <mxCell id="_nmG_EsVDidJPEz30VU9-12" value="" style="edgeStyle=orthogonalEdgeStyle;rounded=0;orthogonalLoop=1;jettySize=auto;html=1;" edge="1" parent="WIyWlLk6GJQsqaUBKTNV-1" source="_nmG_EsVDidJPEz30VU9-6" target="_nmG_EsVDidJPEz30VU9-11">
          <mxGeometry relative="1" as="geometry" />
        </mxCell>
        <mxCell id="_nmG_EsVDidJPEz30VU9-6" value="DOR refers students to WAIV program" style="rounded=1;whiteSpace=wrap;html=1;fontSize=12;glass=0;strokeWidth=1;shadow=0;" vertex="1" parent="WIyWlLk6GJQsqaUBKTNV-1">
          <mxGeometry x="370" y="300" width="140" height="50" as="geometry" />
        </mxCell>
        <mxCell id="_nmG_EsVDidJPEz30VU9-14" value="" style="edgeStyle=orthogonalEdgeStyle;rounded=0;orthogonalLoop=1;jettySize=auto;html=1;" edge="1" parent="WIyWlLk6GJQsqaUBKTNV-1" source="_nmG_EsVDidJPEz30VU9-8" target="_nmG_EsVDidJPEz30VU9-13">
          <mxGeometry relative="1" as="geometry" />
        </mxCell>
        <mxCell id="_nmG_EsVDidJPEz30VU9-8" value="WAIV coordinator do intakes with Students" style="rounded=1;whiteSpace=wrap;html=1;fontSize=12;glass=0;strokeWidth=1;shadow=0;" vertex="1" parent="WIyWlLk6GJQsqaUBKTNV-1">
          <mxGeometry x="370" y="390" width="140" height="50" as="geometry" />
        </mxCell>
        <mxCell id="_nmG_EsVDidJPEz30VU9-11" value="Save student information to Access, Participant Details SS" style="rounded=1;whiteSpace=wrap;html=1;fontSize=12;glass=0;strokeWidth=1;shadow=0;" vertex="1" parent="WIyWlLk6GJQsqaUBKTNV-1">
          <mxGeometry x="590" y="300" width="140" height="50" as="geometry" />
        </mxCell>
        <mxCell id="_nmG_EsVDidJPEz30VU9-16" value="" style="edgeStyle=orthogonalEdgeStyle;rounded=0;orthogonalLoop=1;jettySize=auto;html=1;" edge="1" parent="WIyWlLk6GJQsqaUBKTNV-1" source="_nmG_EsVDidJPEz30VU9-13" target="_nmG_EsVDidJPEz30VU9-15">
          <mxGeometry relative="1" as="geometry" />
        </mxCell>
        <mxCell id="_nmG_EsVDidJPEz30VU9-13" value="Based on students&#39; interest, WAIV coordinator assigns them to WAIV counselors" style="rounded=1;whiteSpace=wrap;html=1;fontSize=12;glass=0;strokeWidth=1;shadow=0;" vertex="1" parent="WIyWlLk6GJQsqaUBKTNV-1">
          <mxGeometry x="370" y="480" width="140" height="70" as="geometry" />
        </mxCell>
        <mxCell id="_nmG_EsVDidJPEz30VU9-18" value="" style="edgeStyle=orthogonalEdgeStyle;rounded=0;orthogonalLoop=1;jettySize=auto;html=1;" edge="1" parent="WIyWlLk6GJQsqaUBKTNV-1" source="_nmG_EsVDidJPEz30VU9-15" target="_nmG_EsVDidJPEz30VU9-17">
          <mxGeometry relative="1" as="geometry" />
        </mxCell>
        <mxCell id="_nmG_EsVDidJPEz30VU9-15" value="WAIV counselor schedules appointments with students" style="rounded=1;whiteSpace=wrap;html=1;fontSize=12;glass=0;strokeWidth=1;shadow=0;" vertex="1" parent="WIyWlLk6GJQsqaUBKTNV-1">
          <mxGeometry x="370" y="590" width="140" height="70" as="geometry" />
        </mxCell>
        <mxCell id="_nmG_EsVDidJPEz30VU9-20" value="" style="edgeStyle=orthogonalEdgeStyle;rounded=0;orthogonalLoop=1;jettySize=auto;html=1;" edge="1" parent="WIyWlLk6GJQsqaUBKTNV-1" source="_nmG_EsVDidJPEz30VU9-17" target="_nmG_EsVDidJPEz30VU9-19">
          <mxGeometry relative="1" as="geometry" />
        </mxCell>
        <mxCell id="_nmG_EsVDidJPEz30VU9-17" value="After every appointment, WAIV counselor will send detailed note on Outlook" style="rounded=1;whiteSpace=wrap;html=1;fontSize=12;glass=0;strokeWidth=1;shadow=0;" vertex="1" parent="WIyWlLk6GJQsqaUBKTNV-1">
          <mxGeometry x="590" y="590" width="140" height="70" as="geometry" />
        </mxCell>
        <mxCell id="_nmG_EsVDidJPEz30VU9-27" style="edgeStyle=orthogonalEdgeStyle;rounded=0;orthogonalLoop=1;jettySize=auto;html=1;exitX=1;exitY=0.5;exitDx=0;exitDy=0;" edge="1" parent="WIyWlLk6GJQsqaUBKTNV-1" source="_nmG_EsVDidJPEz30VU9-19" target="_nmG_EsVDidJPEz30VU9-25">
          <mxGeometry relative="1" as="geometry" />
        </mxCell>
        <mxCell id="_nmG_EsVDidJPEz30VU9-19" value="SA2 will take those notes -&amp;gt; make it into condensed version" style="rounded=1;whiteSpace=wrap;html=1;fontSize=12;glass=0;strokeWidth=1;shadow=0;" vertex="1" parent="WIyWlLk6GJQsqaUBKTNV-1">
          <mxGeometry x="810" y="590" width="140" height="70" as="geometry" />
        </mxCell>
        <mxCell id="_nmG_EsVDidJPEz30VU9-21" value="case close" style="rounded=1;whiteSpace=wrap;html=1;fontSize=12;glass=0;strokeWidth=1;shadow=0;" vertex="1" parent="WIyWlLk6GJQsqaUBKTNV-1">
          <mxGeometry x="590" y="740" width="75" height="40" as="geometry" />
        </mxCell>
        <mxCell id="_nmG_EsVDidJPEz30VU9-25" value="Depend on which DOR counselor, monthly client listing is sent out to DOR" style="rounded=1;whiteSpace=wrap;html=1;fontSize=12;glass=0;strokeWidth=1;shadow=0;" vertex="1" parent="WIyWlLk6GJQsqaUBKTNV-1">
          <mxGeometry x="1020" y="590" width="140" height="70" as="geometry" />
        </mxCell>
        <mxCell id="_nmG_EsVDidJPEz30VU9-31" value="" style="edgeStyle=orthogonalEdgeStyle;rounded=0;orthogonalLoop=1;jettySize=auto;html=1;entryX=0;entryY=0.5;entryDx=0;entryDy=0;" edge="1" parent="WIyWlLk6GJQsqaUBKTNV-1" source="_nmG_EsVDidJPEz30VU9-28" target="_nmG_EsVDidJPEz30VU9-21">
          <mxGeometry relative="1" as="geometry">
            <mxPoint x="590" y="750" as="targetPoint" />
          </mxGeometry>
        </mxCell>
        <mxCell id="_nmG_EsVDidJPEz30VU9-32" value="Yes" style="edgeLabel;html=1;align=center;verticalAlign=middle;resizable=0;points=[];" vertex="1" connectable="0" parent="_nmG_EsVDidJPEz30VU9-31">
          <mxGeometry x="-0.12" relative="1" as="geometry">
            <mxPoint y="-10" as="offset" />
          </mxGeometry>
        </mxCell>
        <mxCell id="_nmG_EsVDidJPEz30VU9-34" style="edgeStyle=orthogonalEdgeStyle;rounded=0;orthogonalLoop=1;jettySize=auto;html=1;exitX=0.5;exitY=1;exitDx=0;exitDy=0;exitPerimeter=0;entryX=0.5;entryY=0;entryDx=0;entryDy=0;" edge="1" parent="WIyWlLk6GJQsqaUBKTNV-1" source="_nmG_EsVDidJPEz30VU9-28" target="_nmG_EsVDidJPEz30VU9-33">
          <mxGeometry relative="1" as="geometry" />
        </mxCell>
        <mxCell id="_nmG_EsVDidJPEz30VU9-37" value="No" style="edgeLabel;html=1;align=center;verticalAlign=middle;resizable=0;points=[];" vertex="1" connectable="0" parent="_nmG_EsVDidJPEz30VU9-34">
          <mxGeometry x="-0.1667" y="-1" relative="1" as="geometry">
            <mxPoint as="offset" />
          </mxGeometry>
        </mxCell>
        <mxCell id="_nmG_EsVDidJPEz30VU9-28" value="JobPlacement?" style="strokeWidth=2;html=1;shape=mxgraph.flowchart.decision;whiteSpace=wrap;" vertex="1" parent="WIyWlLk6GJQsqaUBKTNV-1">
          <mxGeometry x="390" y="710" width="100" height="100" as="geometry" />
        </mxCell>
        <mxCell id="_nmG_EsVDidJPEz30VU9-29" style="edgeStyle=orthogonalEdgeStyle;rounded=0;orthogonalLoop=1;jettySize=auto;html=1;exitX=0.5;exitY=1;exitDx=0;exitDy=0;entryX=0.5;entryY=0;entryDx=0;entryDy=0;entryPerimeter=0;" edge="1" parent="WIyWlLk6GJQsqaUBKTNV-1" source="_nmG_EsVDidJPEz30VU9-15" target="_nmG_EsVDidJPEz30VU9-28">
          <mxGeometry relative="1" as="geometry" />
        </mxCell>
        <mxCell id="_nmG_EsVDidJPEz30VU9-39" value="After 2 years" style="edgeLabel;html=1;align=center;verticalAlign=middle;resizable=0;points=[];" vertex="1" connectable="0" parent="_nmG_EsVDidJPEz30VU9-29">
          <mxGeometry x="-0.16" y="-2" relative="1" as="geometry">
            <mxPoint as="offset" />
          </mxGeometry>
        </mxCell>
        <mxCell id="_nmG_EsVDidJPEz30VU9-33" value="WAIV will send cases back to DOR to continue work with students." style="rounded=1;whiteSpace=wrap;html=1;" vertex="1" parent="WIyWlLk6GJQsqaUBKTNV-1">
          <mxGeometry x="375" y="870" width="130" height="70" as="geometry" />
        </mxCell>
        <mxCell id="_nmG_EsVDidJPEz30VU9-35" value="" style="strokeWidth=2;html=1;shape=mxgraph.flowchart.terminator;whiteSpace=wrap;fillColor=#f8cecc;strokeColor=#b85450;" vertex="1" parent="WIyWlLk6GJQsqaUBKTNV-1">
          <mxGeometry x="770" y="745" width="50" height="30" as="geometry" />
        </mxCell>
        <mxCell id="_nmG_EsVDidJPEz30VU9-36" style="edgeStyle=orthogonalEdgeStyle;rounded=0;orthogonalLoop=1;jettySize=auto;html=1;exitX=1;exitY=0.5;exitDx=0;exitDy=0;entryX=0;entryY=0.5;entryDx=0;entryDy=0;entryPerimeter=0;" edge="1" parent="WIyWlLk6GJQsqaUBKTNV-1" source="_nmG_EsVDidJPEz30VU9-21" target="_nmG_EsVDidJPEz30VU9-35">
          <mxGeometry relative="1" as="geometry" />
        </mxCell>
        <mxCell id="_nmG_EsVDidJPEz30VU9-38" style="edgeStyle=orthogonalEdgeStyle;rounded=0;orthogonalLoop=1;jettySize=auto;html=1;exitX=1;exitY=0.5;exitDx=0;exitDy=0;entryX=0.5;entryY=1;entryDx=0;entryDy=0;entryPerimeter=0;" edge="1" parent="WIyWlLk6GJQsqaUBKTNV-1" source="_nmG_EsVDidJPEz30VU9-33" target="_nmG_EsVDidJPEz30VU9-35">
          <mxGeometry relative="1" as="geometry" />
        </mxCell>
        <mxCell id="_nmG_EsVDidJPEz30VU9-40" value="where it stores currently?" style="ellipse;shape=cloud;whiteSpace=wrap;html=1;" vertex="1" parent="WIyWlLk6GJQsqaUBKTNV-1">
          <mxGeometry x="820" y="490" width="120" height="80" as="geometry" />
        </mxCell>
        <mxCell id="_nmG_EsVDidJPEz30VU9-43" style="edgeStyle=orthogonalEdgeStyle;rounded=0;orthogonalLoop=1;jettySize=auto;html=1;exitX=1;exitY=0.5;exitDx=0;exitDy=0;exitPerimeter=0;entryX=0;entryY=0.5;entryDx=0;entryDy=0;" edge="1" parent="WIyWlLk6GJQsqaUBKTNV-1" source="_nmG_EsVDidJPEz30VU9-41" target="WIyWlLk6GJQsqaUBKTNV-3">
          <mxGeometry relative="1" as="geometry" />
        </mxCell>
        <mxCell id="_nmG_EsVDidJPEz30VU9-45" value="No" style="edgeLabel;html=1;align=center;verticalAlign=middle;resizable=0;points=[];" vertex="1" connectable="0" parent="_nmG_EsVDidJPEz30VU9-43">
          <mxGeometry x="-0.1782" y="-1" relative="1" as="geometry">
            <mxPoint y="-11" as="offset" />
          </mxGeometry>
        </mxCell>
        <mxCell id="_nmG_EsVDidJPEz30VU9-46" style="edgeStyle=orthogonalEdgeStyle;rounded=0;orthogonalLoop=1;jettySize=auto;html=1;exitX=0.5;exitY=1;exitDx=0;exitDy=0;exitPerimeter=0;entryX=0;entryY=0.5;entryDx=0;entryDy=0;" edge="1" parent="WIyWlLk6GJQsqaUBKTNV-1" source="_nmG_EsVDidJPEz30VU9-41" target="_nmG_EsVDidJPEz30VU9-8">
          <mxGeometry relative="1" as="geometry" />
        </mxCell>
        <mxCell id="_nmG_EsVDidJPEz30VU9-47" value="Yes" style="edgeLabel;html=1;align=center;verticalAlign=middle;resizable=0;points=[];" vertex="1" connectable="0" parent="_nmG_EsVDidJPEz30VU9-46">
          <mxGeometry x="-0.4934" y="-1" relative="1" as="geometry">
            <mxPoint x="-19" as="offset" />
          </mxGeometry>
        </mxCell>
        <mxCell id="_nmG_EsVDidJPEz30VU9-41" value="Have IPE ?" style="strokeWidth=2;html=1;shape=mxgraph.flowchart.decision;whiteSpace=wrap;" vertex="1" parent="WIyWlLk6GJQsqaUBKTNV-1">
          <mxGeometry x="170" y="70" width="100" height="100" as="geometry" />
        </mxCell>
        <mxCell id="_nmG_EsVDidJPEz30VU9-42" style="edgeStyle=orthogonalEdgeStyle;rounded=0;orthogonalLoop=1;jettySize=auto;html=1;exitX=0.5;exitY=1;exitDx=0;exitDy=0;entryX=0.5;entryY=0;entryDx=0;entryDy=0;entryPerimeter=0;" edge="1" parent="WIyWlLk6GJQsqaUBKTNV-1" source="_nmG_EsVDidJPEz30VU9-1" target="_nmG_EsVDidJPEz30VU9-41">
          <mxGeometry relative="1" as="geometry" />
        </mxCell>
      </root>
    </mxGraphModel>
  </diagram>
</mxfile>
